<?xml version="1.0" standalone="no"?>
<!DOCTYPE svg PUBLIC "-//W3C//DTD SVG 20010904//EN"
 "http://www.w3.org/TR/2001/REC-SVG-20010904/DTD/svg10.dtd">
<svg version="1.0" xmlns="http://www.w3.org/2000/svg"
 width="1280.000000pt" height="972.000000pt" viewBox="0 0 1280.000000 972.000000"
 preserveAspectRatio="xMidYMid meet">
<metadata>
Created by potrace 1.15, written by Peter Selinger 2001-2017
</metadata>
<g transform="translate(0.000000,972.000000) scale(0.100000,-0.100000)"
fill="#607d8b" stroke="none">
<path d="M2680 9714 c-25 -2 -103 -9 -175 -15 -202 -17 -394 -58 -435 -94 -8
-7 -36 -21 -61 -32 -123 -54 -209 -226 -240 -478 -19 -151 4 -322 52 -401 10
-17 22 -48 27 -70 7 -33 12 -39 32 -39 21 0 25 4 22 25 -2 23 0 22 38 -15 41
-40 48 -65 7 -27 -13 12 -26 22 -30 22 -11 0 -8 -58 3 -65 6 -3 10 -10 10 -15
0 -4 -23 0 -50 11 -69 26 -105 24 -137 -7 -24 -24 -25 -30 -20 -102 3 -45 18
-117 36 -173 17 -53 31 -108 31 -123 0 -15 11 -38 25 -51 13 -14 21 -25 17
-25 -5 0 -13 5 -19 11 -7 7 -12 -4 -17 -38 -4 -26 -10 -73 -15 -103 -10 -68 1
-182 36 -370 30 -163 30 -163 14 -242 -10 -47 -9 -68 6 -130 14 -58 17 -101
13 -213 -3 -77 -3 -198 -1 -270 6 -201 7 -1750 1 -2325 -3 -283 -3 -556 -1
-605 3 -62 0 -98 -9 -115 -21 -39 -100 -119 -142 -142 -37 -21 -55 -49 -44
-67 7 -10 -17 -21 -47 -21 -19 0 -19 2 8 30 16 16 27 32 24 34 -2 3 -20 1 -39
-3 -28 -6 -35 -12 -34 -29 0 -12 -1 -22 -2 -22 -2 0 -97 35 -211 79 -284 107
-520 204 -631 258 -168 82 -316 209 -385 332 -29 52 -32 54 -38 31 -5 -18 -7
-10 -8 27 -1 29 -6 98 -12 153 -10 88 -10 108 5 164 22 79 29 467 9 473 -7 3
-13 -10 -16 -34 -3 -32 -4 -30 -5 15 -3 81 28 472 38 492 24 45 32 153 65 855
8 176 20 379 26 450 6 72 12 167 14 212 8 169 64 424 116 518 37 67 39 69 39
36 l0 -34 31 47 c17 26 47 59 66 73 22 17 33 33 30 44 -3 12 3 18 19 22 25 4
34 -8 12 -16 -7 -2 -11 -7 -8 -10 3 -3 30 10 60 29 30 19 61 34 70 34 9 0 22
6 28 13 13 12 45 20 222 55 48 10 98 26 116 39 27 19 31 20 40 6 9 -14 19 -14
74 -5 36 6 105 16 153 23 81 10 89 13 102 39 19 37 4 49 -67 57 -106 11 -450
-41 -582 -88 -51 -18 -64 -20 -97 -9 -23 8 -55 10 -86 5 -60 -8 -193 -53 -214
-71 -8 -8 -21 -14 -28 -14 -27 0 -69 -41 -98 -97 -98 -186 -174 -558 -268
-1313 -42 -344 -51 -400 -75 -510 -65 -292 -89 -857 -46 -1054 23 -102 36
-106 37 -11 2 76 2 78 9 30 5 -27 10 -63 13 -80 3 -16 8 -66 12 -110 19 -249
79 -450 156 -520 22 -19 39 -44 39 -55 0 -19 -4 -17 -50 12 -27 18 -54 45 -60
60 -7 14 -22 36 -35 48 l-22 21 -6 -20 c-8 -30 -27 -26 -27 6 l0 26 -26 -24
c-47 -43 -48 -63 -11 -148 19 -42 40 -98 46 -126 20 -84 68 -127 107 -94 11 9
22 7 53 -14 51 -34 231 -124 365 -182 60 -26 129 -63 154 -82 97 -74 276 -145
401 -159 64 -7 104 -21 254 -93 94 -44 245 -88 271 -78 10 4 13 12 9 23 -10
28 15 7 32 -26 18 -34 14 -56 -39 -231 -39 -129 -81 -229 -96 -229 -5 0 -14
10 -21 21 -10 19 -17 21 -63 16 -58 -6 -114 5 -256 51 -52 16 -115 33 -140 37
-25 4 -57 16 -72 26 -54 38 -122 17 -116 -36 3 -29 5 -30 46 -27 23 1 42 -2
42 -6 0 -16 482 -192 523 -192 34 0 129 -61 149 -96 14 -24 16 -37 8 -65 -20
-69 -6 -209 21 -209 5 0 9 5 9 10 0 6 8 10 17 10 13 0 14 -3 5 -12 -7 -7 -12
-25 -12 -42 0 -37 -9 -29 -36 36 -12 28 -24 46 -27 41 -14 -22 -38 -191 -38
-261 0 -42 -2 -120 -5 -172 -3 -53 -4 -109 -2 -125 l4 -30 11 25 c11 23 12 22
12 -17 1 -23 -3 -44 -8 -47 -12 -8 -21 -59 -14 -85 5 -20 6 -20 18 -4 8 10 17
14 22 9 4 -5 2 -11 -4 -13 -7 -3 -13 -14 -13 -26 0 -46 -24 -144 -44 -182 -33
-63 -27 -196 18 -419 21 -99 43 -191 51 -206 13 -26 78 -89 125 -123 l25 -18
-25 12 c-14 6 -45 28 -70 47 l-45 35 40 -41 c76 -81 276 -165 519 -219 113
-25 138 -27 391 -28 152 -1 292 -7 320 -13 70 -15 137 -39 347 -126 322 -132
434 -167 573 -182 39 -4 88 -13 110 -21 132 -47 507 -15 655 56 48 22 138 95
130 104 -3 3 -37 -10 -75 -29 -62 -30 -103 -43 -230 -68 l-30 -6 30 11 c17 6
92 36 168 66 76 31 140 53 143 50 3 -3 35 14 72 39 48 32 76 44 102 44 29 0
469 -43 660 -64 28 -4 39 -2 30 3 -8 5 -127 28 -265 51 -137 24 -254 46 -258
50 -4 4 72 12 170 19 98 6 225 16 283 22 98 10 370 -2 424 -18 12 -3 16 -1 12
6 -4 6 -25 16 -46 22 -22 7 -40 15 -40 18 0 4 51 13 113 20 61 7 145 19 185
27 86 16 124 18 103 5 -9 -6 -10 -11 -2 -15 21 -13 164 -36 226 -36 61 0 95
-13 58 -23 -14 -4 -13 -5 5 -6 28 -1 29 24 1 39 -11 7 -18 14 -15 17 3 3 11 1
18 -5 7 -5 45 -13 83 -17 39 -3 97 -11 129 -16 67 -12 234 -1 181 12 -91 21
100 2 217 -22 41 -8 55 -15 51 -25 -7 -18 5 -21 105 -28 70 -6 82 -4 82 9 0
12 4 14 19 5 26 -13 38 -13 24 1 -6 6 -9 18 -6 25 4 11 29 14 107 13 55 -1 93
-3 84 -6 -22 -5 -24 -23 -3 -23 8 0 15 -6 15 -14 0 -21 23 -26 136 -30 54 -3
133 -8 175 -11 72 -7 77 -6 104 19 15 14 29 26 31 26 2 0 1 -13 -2 -29 -7 -36
16 -46 81 -36 33 4 46 12 51 28 5 12 7 25 6 30 -1 4 26 7 60 7 l63 -1 -28 -24
c-18 -16 -40 -25 -63 -25 -19 0 -34 -3 -34 -7 0 -17 204 7 241 27 39 21 26 -8
-23 -53 l-53 -49 40 18 c22 9 60 16 86 15 36 -1 51 3 72 23 24 22 31 24 55 15
15 -6 47 -8 72 -5 60 8 205 15 432 21 203 6 258 12 236 27 -8 6 4 8 35 4 45
-5 87 5 87 22 0 4 -26 6 -57 5 -66 -3 -47 11 31 22 38 6 46 5 46 -8 0 -18 76
-37 143 -37 49 1 110 21 137 45 10 9 23 14 29 11 5 -4 12 -2 16 3 3 7 15 7 29
1 13 -5 26 -6 29 -3 3 3 34 6 69 8 35 2 133 6 218 10 262 11 429 43 545 103
42 22 46 27 28 30 -28 4 -31 22 -4 22 11 0 36 16 57 35 20 20 49 38 63 42 26
6 26 6 8 -15 -15 -16 11 -9 118 34 76 30 143 54 150 54 7 0 25 6 39 14 23 12
24 15 11 26 -21 17 -19 30 5 30 11 0 23 7 27 16 3 9 76 62 162 118 158 104
253 186 326 283 35 47 57 71 40 43 -12 -19 12 -10 32 12 29 32 81 123 89 156
4 15 19 45 34 67 96 143 331 532 406 673 23 44 44 72 55 72 9 0 24 9 34 20 16
17 17 27 8 63 -5 24 -6 52 -2 63 4 10 8 37 8 60 2 75 -49 105 -304 179 -88 25
-191 61 -230 79 -68 32 -155 105 -155 131 0 7 14 18 31 25 22 9 37 26 49 56
22 50 39 61 110 69 28 3 59 10 69 15 9 5 24 11 33 14 9 3 27 24 39 48 57 111
17 485 -71 664 -34 69 -86 126 -154 169 -25 16 -43 31 -41 33 3 3 0 11 -7 19
-16 20 -6 24 33 13 19 -5 115 -8 214 -7 l180 2 78 43 77 43 0 -37 c0 -55 8
-38 14 30 2 32 6 59 8 61 2 1 29 19 60 39 89 57 181 148 219 218 31 58 34 70
33 148 -1 94 -28 170 -62 170 -30 1 -62 36 -62 69 0 51 -23 48 -64 -11 l-15
-22 -111 17 c-142 22 -213 54 -313 142 -62 54 -85 83 -109 132 -19 40 -44 75
-70 96 -22 17 -48 51 -59 75 -14 30 -30 48 -57 60 -20 9 -39 20 -42 23 -17 22
-134 154 -185 208 -67 70 -154 142 -231 188 -68 41 -94 49 -94 28 0 -14 -3
-14 -31 0 -16 9 -32 23 -35 31 -16 52 -14 50 -28 32 -12 -16 -18 -13 -77 29
-84 61 -87 64 -81 85 5 21 -58 63 -215 143 -59 30 -115 61 -123 68 -32 28
-322 209 -387 241 -37 19 -97 44 -133 56 -66 21 -190 38 -190 26 0 -4 19 -15
43 -25 34 -15 39 -20 24 -26 -29 -12 -64 11 -78 49 -7 20 -18 36 -24 36 -6 0
-15 14 -20 32 -17 53 -53 71 -153 76 -48 2 -104 0 -125 -6 -29 -8 -46 -7 -72
4 -22 9 -70 14 -131 14 -81 0 -95 2 -85 14 14 17 -7 23 -101 32 -35 3 -106 14
-158 24 -130 25 -487 36 -549 18 -52 -16 -67 -38 -25 -38 36 0 28 -6 -20 -14
-36 -7 -38 -6 -27 8 17 20 10 21 -100 2 -125 -22 -254 -30 -275 -18 -13 7 -29
6 -54 -3 -19 -8 -80 -21 -135 -29 -111 -18 -217 -46 -273 -73 -27 -13 -36 -24
-35 -39 2 -21 -1 -21 -61 -17 -65 6 -103 -3 -186 -40 -66 -30 -67 -30 -46 -13
11 9 16 16 10 16 -26 0 -202 -53 -289 -88 -55 -22 -138 -45 -185 -53 -92 -14
-299 -18 -341 -7 l-26 8 -8 807 c-10 902 -10 972 -5 1298 3 183 0 243 -12 295
-12 48 -14 81 -7 125 4 33 14 158 20 277 10 166 10 239 1 315 -17 144 -49 223
-92 223 -9 0 -24 8 -34 18 -18 20 -64 36 -136 47 -25 4 -67 17 -95 30 -27 13
-88 29 -135 36 -116 16 -494 6 -835 -24 -299 -26 -368 -25 -757 12 -117 11
-271 26 -343 33 -210 19 -620 16 -737 -5 -91 -17 -104 -17 -190 -3 -91 15
-388 28 -478 20z m3674 -142 c2 -4 -11 -6 -30 -4 -19 2 -34 6 -34 8 0 8 59 4
64 -4z m-390 -47 c7 -18 -2 -18 -34 0 l-25 14 26 1 c15 0 29 -7 33 -15z m253
-33 c7 -5 -2 -15 -26 -28 l-38 -21 11 29 c10 28 30 35 53 20z m-203 -46 c31
-42 33 -62 5 -76 -24 -14 -21 -16 -48 38 -18 34 -20 47 -10 58 17 20 24 18 53
-20z m105 -20 c-2 -2 -15 -9 -29 -15 -24 -11 -24 -11 -6 3 16 13 49 24 35 12z
m-1985 -551 c-14 -34 -14 -35 8 -36 22 0 22 -1 3 -8 -11 -4 -33 -11 -49 -15
l-29 -7 27 31 c14 17 26 40 26 51 0 10 7 19 14 19 13 0 13 -4 0 -35z m441 -17
c-27 -32 -31 -74 -10 -122 7 -17 5 -18 -21 -12 -16 4 -37 16 -46 27 -16 19
-16 23 -2 50 14 28 14 30 -11 39 -15 6 -41 10 -60 10 -19 0 -36 4 -39 9 -5 8
107 26 187 30 l29 1 -27 -32z m1700 22 c4 -6 -5 -10 -20 -10 -15 0 -24 4 -20
10 3 6 12 10 20 10 8 0 17 -4 20 -10z m-1688 -70 c-19 -34 -22 -37 -25 -18 -3
14 4 29 18 40 31 25 31 23 7 -22z m-1387 -62 c-212 -45 -404 -100 -415 -119
-4 -5 -12 -9 -18 -9 -31 1 44 43 117 65 91 29 298 74 336 73 14 0 5 -4 -20
-10z m3061 -8 c16 0 29 -4 29 -10 0 -5 -20 -10 -45 -10 l-45 0 -1 -37 -1 -38
-10 35 c-7 24 -6 36 1 38 6 2 11 11 11 19 0 10 6 13 16 9 9 -3 29 -6 45 -6z
m179 -73 c0 -30 -18 -27 -29 5 -17 49 -14 64 9 35 11 -14 20 -32 20 -40z
m-2741 28 c-176 -53 -376 -67 -462 -32 -23 10 0 12 135 14 116 1 192 7 263 21
134 26 156 26 64 -3z m1136 15 c4 -6 -7 -10 -27 -10 -25 0 -29 3 -18 10 19 13
37 13 45 0z m1245 -11 c-25 -11 -60 -34 -77 -52 l-33 -31 0 25 c0 42 57 77
125 78 28 1 27 -1 -15 -20z m-1187 -25 c15 -3 27 -10 27 -15 0 -13 -15 -11
-55 5 -36 15 -49 31 -17 22 9 -3 29 -8 45 -12z m149 -80 l63 -36 -55 7 c-30 3
-60 11 -67 17 -12 10 -19 48 -8 48 2 0 33 -16 67 -36z m1133 26 c3 -5 -1 -10
-9 -10 -9 0 -16 5 -16 10 0 6 4 10 9 10 6 0 13 -4 16 -10z m-3397 -41 c33 -13
27 -17 -20 -16 -33 2 -44 6 -46 20 -4 20 3 19 66 -4z m-231 -15 c-3 -3 -12 -4
-19 -1 -8 3 -5 6 6 6 11 1 17 -2 13 -5z m2133 -4 c121 -12 192 -29 184 -42 -7
-10 -53 -9 -270 8 -62 5 -89 3 -111 -8 -33 -17 -85 -12 -233 21 l-85 19 100 4
c201 8 322 7 415 -2z m-1783 -21 c19 -12 32 -24 29 -26 -3 -3 -18 3 -33 13
-15 11 -39 22 -53 25 l-25 7 24 1 c13 0 39 -9 58 -20z m610 -2 c-5 -16 -60
-19 -69 -4 -13 20 -9 23 32 19 25 -3 39 -9 37 -15z m-1302 3 c3 -5 1 -10 -4
-10 -6 0 -11 5 -11 10 0 6 2 10 4 10 3 0 8 -4 11 -10z m352 -22 c-3 -7 -5 -2
-5 12 0 14 2 19 5 13 2 -7 2 -19 0 -25z m2946 15 c-7 -2 -19 -2 -25 0 -7 3 -2
5 12 5 14 0 19 -2 13 -5z m124 -9 c-3 -3 -12 -4 -19 -1 -8 3 -5 6 6 6 11 1 17
-2 13 -5z m56 -11 c-7 -2 -19 -2 -25 0 -7 3 -2 5 12 5 14 0 19 -2 13 -5z
m-2370 -19 c21 -12 32 -13 35 -5 2 6 8 11 13 11 5 0 2 -11 -7 -25 -17 -26 -17
-26 -38 -7 -12 11 -34 24 -51 30 -26 9 -27 11 -7 11 13 1 37 -6 55 -15z m417
1 c30 -7 48 -14 38 -14 -9 -1 -18 -7 -21 -13 -3 -10 -7 -10 -19 -1 -12 11 -19
10 -36 -6 -12 -10 -20 -21 -17 -25 3 -3 -1 -2 -7 4 -7 5 -48 10 -92 10 -79 0
-80 0 -56 17 14 10 38 16 57 14 18 -1 43 5 55 13 27 19 28 19 98 1z m2750 -51
c0 -41 -4 -63 -10 -59 -18 11 -12 125 7 125 2 0 3 -30 3 -66z m-1940 16 c0
-18 -3 -19 -22 -9 -22 12 -22 12 -3 20 11 4 21 8 23 8 1 1 2 -8 2 -19z m-2370
0 c-8 -5 -22 -10 -31 -10 -9 0 -22 -7 -29 -15 -7 -8 -23 -15 -37 -15 -35 0
-63 -18 -63 -40 0 -24 -7 -24 -40 -4 l-25 15 24 -5 c17 -3 25 0 28 15 5 19 33
31 77 33 11 1 22 7 22 14 1 6 2 14 3 17 0 3 20 5 44 5 31 0 38 -3 27 -10z
m3463 -6 c45 -8 44 -26 -2 -35 -18 -4 -45 -18 -59 -32 -15 -13 -39 -27 -54
-29 -24 -5 -28 -2 -28 18 0 59 39 99 85 89 11 -3 37 -8 58 -11z m-984 -20 c17
-9 38 -13 46 -10 22 8 18 -12 -5 -24 -16 -8 -25 -5 -52 20 -37 33 -35 37 11
14z m-2309 -25 c69 0 98 -3 85 -9 -25 -11 -265 -40 -325 -40 l-45 1 60 23 c33
13 59 28 58 34 -2 7 8 7 30 1 17 -5 79 -9 137 -10z m950 -9 c-26 -36 -46 -51
-37 -26 4 10 7 26 7 37 0 14 7 19 26 19 l25 0 -21 -30z m2410 -31 c0 -5 -9 -9
-20 -9 -19 0 -26 11 -14 23 8 8 34 -3 34 -14z m105 10 c10 -15 -1 -23 -20 -15
-9 3 -13 10 -10 16 8 13 22 13 30 -1z m-4298 -555 c-3 -3 -12 -4 -19 -1 -8 3
-5 6 6 6 11 1 17 -2 13 -5z m-865 -92 c15 -6 12 -10 -14 -25 -23 -13 -28 -14
-19 -3 7 8 10 20 6 26 -7 11 2 12 27 2z m-178 -124 c-4 -18 -14 -51 -24 -73
-9 -23 -20 -57 -24 -77 -7 -37 -26 -62 -26 -35 0 32 65 217 76 217 2 0 1 -15
-2 -32z m-71 -444 c-6 -36 -13 -50 -27 -52 -14 -3 -17 0 -12 13 3 9 6 42 6 73
l0 56 21 -20 c17 -18 19 -27 12 -70z m-59 -598 c-4 -31 -9 -54 -12 -52 -2 3
-1 30 3 61 3 31 9 55 11 52 3 -2 2 -30 -2 -61z m-73 -264 c-27 -93 -47 -198
-62 -322 -7 -58 -18 -114 -25 -125 -8 -11 -23 -56 -34 -100 l-20 -80 5 85 c6
97 8 116 31 257 9 56 20 101 23 99 3 -2 7 16 8 40 1 24 8 67 16 96 8 29 27
116 43 192 l29 140 3 -107 c2 -84 -2 -123 -17 -175z m7273 37 c-26 -10 -84
-11 -84 -1 0 5 16 9 36 10 20 1 39 4 42 6 3 3 9 3 15 -1 6 -4 3 -10 -9 -14z
m-226 -41 c-3 -7 -18 -14 -34 -16 l-29 -2 25 14 c31 19 43 20 38 4z m3072 -94
c0 -2 -9 -4 -20 -4 -11 0 -20 4 -20 9 0 5 9 7 20 4 11 -3 20 -7 20 -9z m27
-30 c-3 -3 -12 -4 -19 -1 -8 3 -5 6 6 6 11 1 17 -2 13 -5z m-10298 -326 c-9
-16 -14 -19 -17 -9 -2 7 2 17 9 22 20 13 21 11 8 -13z m55 -118 c-9 -38 -14
-97 -12 -143 2 -42 0 -77 -4 -77 -4 0 -13 18 -19 40 -13 42 -8 75 27 197 22
74 27 62 8 -17z m-6 -385 c-3 -3 -9 2 -12 12 -6 14 -5 15 5 6 7 -7 10 -15 7
-18z m45 -434 c4 -79 4 -141 2 -139 -10 10 -31 229 -27 283 7 93 19 28 25
-144z m74 -148 c-3 -10 -5 -2 -5 17 0 19 2 27 5 18 2 -10 2 -26 0 -35z m112
-787 c25 -19 66 -56 91 -82 l45 -47 -70 38 c-68 37 -124 87 -125 113 0 18 8
15 59 -22z m11519 -139 c7 -16 8 -26 3 -23 -5 3 -14 20 -20 38 -13 38 0 26 17
-15z m-11013 -307 c16 -7 12 -9 -18 -7 -21 0 -41 5 -43 9 -7 11 36 9 61 -2z
m835 -62 c0 -18 -2 -20 -9 -8 -6 8 -7 18 -5 22 9 14 14 9 14 -14z m69 -144
c-12 -13 -26 -24 -30 -24 -5 0 3 11 16 25 14 13 25 30 26 37 0 10 2 10 6 0 3
-7 -5 -24 -18 -38z m-219 -54 l75 -9 -94 4 c-52 2 -99 9 -105 15 -7 7 -2 9 19
5 17 -3 64 -10 105 -15z m460 -54 c1 -36 10 -70 35 -128 7 -17 5 -17 -26 -4
-28 12 -35 21 -39 53 -3 21 -14 52 -25 68 -10 17 -12 24 -5 18 27 -25 38 -15
33 30 -4 39 -3 41 11 23 9 -11 16 -38 16 -60z m-270 54 c0 -5 -4 -10 -10 -10
-5 0 -10 5 -10 10 0 6 5 10 10 10 6 0 10 -4 10 -10z m-237 -27 c-7 -2 -19 -2
-25 0 -7 3 -2 5 12 5 14 0 19 -2 13 -5z m277 3 c0 -3 -4 -8 -10 -11 -5 -3 -10
-1 -10 4 0 6 5 11 10 11 6 0 10 -2 10 -4z m135 -94 c-2 -3 -23 12 -46 32 -24
20 -46 36 -51 36 -4 0 -8 7 -8 16 0 10 19 -1 54 -33 30 -26 53 -49 51 -51z
m39 -289 c-15 -51 -29 -91 -31 -89 -2 2 7 48 21 102 15 54 27 110 28 124 1 18
2 15 5 -10 3 -20 -7 -73 -23 -127z m-44 121 c0 -3 -13 -18 -28 -34 -27 -27
-29 -27 -50 -10 -29 24 -28 28 11 39 38 11 67 13 67 5z m-115 -92 c-7 -7 -25
47 -24 71 0 13 6 4 14 -23 8 -24 12 -46 10 -48z m133 2 c-7 -15 -18 -29 -25
-31 -7 -3 -2 13 10 36 24 44 37 39 15 -5z m289 -36 c-3 -7 -5 -2 -5 12 0 14 2
19 5 13 2 -7 2 -19 0 -25z m318 -314 c18 -43 18 -44 6 -44 -5 0 -11 10 -14 23
-2 12 -8 30 -12 40 -4 9 -4 17 -1 17 3 0 13 -16 21 -36z m-307 -50 c12 -8 22
-24 22 -35 0 -19 -3 -18 -42 12 -24 18 -47 37 -53 41 -15 14 46 -2 73 -18z
m-303 -54 c-3 -5 -12 -10 -18 -10 -7 0 -6 4 3 10 19 12 23 12 15 0z m-128
-157 c-3 -2 -15 -2 -26 2 -18 5 -19 10 -10 27 11 20 11 20 26 -2 8 -12 13 -24
10 -27z m53 -22 c0 -5 -7 -12 -16 -15 -24 -9 -28 -7 -14 9 14 17 30 20 30 6z
m-108 -293 c-7 -7 -12 -8 -12 -2 0 6 3 14 7 17 3 4 9 5 12 2 2 -3 -1 -11 -7
-17z m108 -13 c0 -17 -2 -18 -25 -9 -13 5 -14 8 -3 15 19 13 28 11 28 -6z
m-130 -15 c0 -13 -5 -18 -15 -14 -12 5 -13 10 -4 20 15 19 19 18 19 -6z m-27
-74 c-1 -19 -6 -42 -12 -53 -8 -14 -10 -4 -11 47 0 50 3 61 12 52 7 -7 12 -27
11 -46z m59 -97 l-8 -54 -17 31 c-16 31 -16 33 4 59 12 14 23 24 25 22 2 -2 1
-28 -4 -58z m-115 -31 c-3 -7 -5 -2 -5 12 0 14 2 19 5 13 2 -7 2 -19 0 -25z
m213 -47 c0 -12 -11 -23 -31 -30 -45 -16 -60 -13 -21 4 18 8 35 21 38 30 8 20
14 19 14 -4z m-86 -136 l17 -30 -20 24 c-12 13 -21 28 -21 34 0 12 0 11 24
-28z m-29 -71 c20 -8 35 -17 32 -20 -3 -3 -22 4 -44 15 -46 24 -40 27 12 5z
m10 -178 c6 -6 5 -6 -2 -2 -8 5 -13 1 -13 -11 0 -15 -4 -14 -24 7 -13 14 -27
36 -31 50 -8 27 -9 27 70 -44z m775 -56 c11 -7 5 -8 -20 -4 -43 8 -51 14 -19
14 13 0 31 -5 39 -10z m365 -10 c14 -7 6 -9 -32 -7 -28 1 -49 5 -46 9 6 11 53
9 78 -2z m835 -5 c0 -9 -9 -15 -22 -15 -30 0 -52 -15 -44 -28 4 -7 -6 -9 -29
-5 -20 3 -53 0 -74 -7 -21 -6 -46 -10 -57 -8 -10 2 24 14 76 27 52 12 106 29
120 36 32 18 30 18 30 0z m-1703 -31 c-3 -3 -12 -4 -19 -1 -8 3 -5 6 6 6 11 1
17 -2 13 -5z m826 -11 c-7 -2 -19 -2 -25 0 -7 3 -2 5 12 5 14 0 19 -2 13 -5z
m912 -3 c-3 -5 -10 -10 -16 -10 -5 0 -9 5 -9 10 0 6 7 10 16 10 8 0 12 -4 9
-10z m-545 -30 c-34 -11 -60 -11 -35 0 11 5 29 8 40 8 16 0 15 -2 -5 -8z m-93
-16 c-3 -3 -12 -4 -19 -1 -8 3 -5 6 6 6 11 1 17 -2 13 -5z m298 -13 c-3 -6
-11 -11 -17 -11 -6 0 -6 6 2 15 14 17 26 13 15 -4z m-372 2 c-23 -2 -64 -2
-90 0 -26 2 -7 3 42 3 50 0 71 -1 48 -3z m192 -13 c-3 -5 -11 -10 -16 -10 -6
0 -7 5 -4 10 3 6 11 10 16 10 6 0 7 -4 4 -10z m149 -35 c7 -19 -10 -22 -159
-30 -347 -18 -798 -80 -843 -117 -7 -6 -15 -8 -18 -5 -22 22 128 66 326 97 74
11 203 31 285 44 183 29 400 34 409 11z m246 8 c-14 -3 -29 -9 -34 -14 -6 -5
-19 -9 -30 -9 -17 1 -15 4 9 15 17 7 41 13 55 13 l25 -1 -25 -4z m593 -20 c-7
-2 -19 -2 -25 0 -7 3 -2 5 12 5 14 0 19 -2 13 -5z m436 -228 c-14 -8 -71 -23
-126 -34 -266 -55 -743 -79 -1200 -62 -163 7 -299 13 -301 15 -2 2 50 7 115
10 65 4 215 13 333 21 118 8 271 17 340 20 69 3 222 12 340 20 285 20 308 21
425 23 91 1 98 0 74 -13z m-639 -334 c0 -5 -9 -11 -20 -14 -11 -3 -20 -1 -20
3 0 5 8 11 18 13 9 3 18 5 20 6 1 0 2 -3 2 -8z m99 -123 c7 -11 11 -22 9 -24
-4 -3 -125 70 -142 86 -4 4 21 -3 56 -17 36 -14 70 -34 77 -45z m446 52 c-6
-18 -2 -20 37 -21 24 -1 54 -5 68 -9 16 -5 -14 -8 -85 -9 -60 -1 -121 -4 -135
-6 -14 -3 6 10 45 30 38 19 71 35 73 35 2 0 0 -9 -3 -20z m2060 10 c3 -5 -1
-10 -9 -10 -8 0 -18 5 -21 10 -3 6 1 10 9 10 8 0 18 -4 21 -10z m-1777 -76 c2
-1 -9 -19 -23 -39 -15 -23 -23 -46 -19 -57 12 -37 -8 -16 -31 35 -37 79 -35
86 23 74 26 -6 48 -11 50 -13z m3159 -30 c-3 -3 -12 -4 -19 -1 -8 3 -5 6 6 6
11 1 17 -2 13 -5z m-3938 -311 c2 -2 1 -6 -3 -10 -13 -13 -102 18 -176 63
-134 81 -128 85 25 17 83 -37 152 -68 154 -70z m288 21 c-3 -3 -12 -4 -19 -1
-8 3 -5 6 6 6 11 1 17 -2 13 -5z m-72 -19 c-22 -7 -71 -15 -110 -18 l-70 -6
78 14 c43 8 84 16 90 19 7 2 21 4 32 4 11 0 2 -6 -20 -13z"/>
<path d="M5540 8430 c0 -13 5 -20 13 -17 6 2 12 10 12 17 0 7 -6 15 -12 18 -8
2 -13 -5 -13 -18z"/>
<path d="M1488 8356 c-40 -29 -2 -70 42 -46 24 13 22 28 -6 46 -15 10 -22 10
-36 0z"/>
<path d="M776 8284 c-21 -8 -44 -18 -50 -23 -6 -4 -36 -11 -66 -14 -76 -7
-174 -41 -294 -101 -90 -45 -101 -54 -104 -80 -4 -33 10 -46 53 -46 29 0 67
19 90 45 6 7 41 17 79 24 38 7 112 26 164 42 73 24 105 29 137 24 68 -10 130
11 170 58 19 22 32 44 28 49 -21 36 -137 48 -207 22z"/>
<path d="M513 7318 c-32 -87 -68 -226 -61 -233 2 -2 25 66 51 152 52 169 57
214 10 81z"/>
<path d="M557 7343 c-4 -3 -7 -18 -6 -32 1 -26 1 -25 10 3 9 31 7 41 -4 29z"/>
<path d="M531 7224 c0 -11 3 -14 6 -6 3 7 2 16 -1 19 -3 4 -6 -2 -5 -13z"/>
<path d="M380 3081 c0 -24 137 -127 222 -166 65 -30 99 -31 124 -4 37 41 -22
85 -180 134 -137 41 -166 48 -166 36z"/>
<path d="M7073 383 c9 -2 25 -2 35 0 9 3 1 5 -18 5 -19 0 -27 -2 -17 -5z"/>
</g>
</svg>
