<svg id="Capa_1" enable-background="new 0 0 492.369 492.369" height="512" viewBox="0 0 492.369 492.369" width="512" xmlns="http://www.w3.org/2000/svg"><g><path d="m397.079 399.971c27.438 0 49.76-22.322 49.76-49.76v-157.167c0-27.438-22.322-49.76-49.76-49.76h-132.335v32h132.335c9.793 0 17.76 7.967 17.76 17.76v157.167c0 9.793-7.967 17.76-17.76 17.76h-121.629v30.613z" fill="#efedef"/><g><g><path d="m338.012 118.289-4.8-52.631-235.47 3.131-17.66 123.119 73.344 79.719h150.899l38.887-89.118z" fill="#ffface"/></g></g><path d="m339.655 138.585-1.643-20.297-4.8-52.63-235.47 3.13-17.66 123.12 23.843 25.916c18.463-5.345 32.005-22.393 32.005-42.555v-41.047c6.384 1.656 12.967 2.491 19.679 2.491 2.182 0 4.362-.091 6.532-.271v86.529c0 21.979 16.986 39.8 38.671 40.571.481.018.965.025 1.442.025 22.12 0 40.115-17.995 40.115-40.114v-83.025c12.757-1.088 24.707-5.974 34.441-13.813 12.872 9.087 28.41 14.177 44.455 14.177 6.285 0 12.445-.758 18.39-2.207z" fill="#fef6ad"/><path d="m363.152 428.589c2.78 34.36-24.35 63.78-58.83 63.78h-184.86c-34.47 0-61.61-29.42-58.82-63.78l18.81-232.28.63-4.4c17.3-3.86 34.1-7.58 34.1-7.58 22.43-5.84 45.93-5.39 67.96 1.14l40.23 16.35c36.19 12.74 76.45 8.46 109.31-12.09l11.53-7.22z" fill="#fef056"/><g><path d="m200.812 263.543c.481.018.965.025 1.442.025 22.12 0 40.115-17.995 40.115-40.114v-16.392c-6.754-1.195-13.443-2.936-19.998-5.244l-40.23-16.35c-6.558-1.944-13.248-3.336-20-4.197v41.7c0 21.98 16.987 39.801 38.671 40.572z" fill="#fee903"/></g><g><g><path d="m91.626 219.574c22.597 0 41.283-17.009 43.962-38.894-7.189.599-14.35 1.811-21.406 3.648 0 0-16.8 3.72-34.1 7.58l-.63 4.4-1.703 21.028c4.368 1.445 9.03 2.238 13.877 2.238z" fill="#fee903"/></g><path d="m323.39 6.848c-26.07-.948-48.396 15.629-56.169 38.871-7.844-7.583-18.519-12.258-30.292-12.258-9.483 0-18.251 3.037-25.406 8.178-7.19-24.08-29.496-41.639-55.914-41.639-29.801 0-54.367 22.344-57.902 51.189-5.616-2.468-11.952-3.602-18.614-2.961-18.076 1.738-32.417 16.641-33.496 34.768-.952 16.01 8.226 29.989 21.723 36.147v56.125c0 13.423 10.882 24.305 24.305 24.305 13.423 0 24.305-10.882 24.305-24.305v-53.053c0-8.334 8.573-13.777 16.201-10.42 7.184 3.162 15.126 4.917 23.478 4.917 4.481 0 8.843-.505 13.033-1.462 6.916-1.579 13.499 3.689 13.499 10.783v96.938c0 10.907 8.481 20.196 19.381 20.583 11.443.407 20.848-8.749 20.848-20.101v-91.848c0-6.361 5.352-11.452 11.7-11.038.945.062 1.899.093 2.86.093 16.65 0 31.115-9.336 38.459-23.055 10.378 14.062 27.06 23.186 45.878 23.186 31.771 0 57.47-25.997 56.984-57.879-.459-30.127-24.749-54.969-54.861-56.064z" fill="#f9f7f8"/><g><path d="m296.825 157.784h-7.462c-4.143 0-7.5-3.357-7.5-7.5s3.357-7.5 7.5-7.5h7.462c4.143 0 7.5 3.357 7.5 7.5s-3.358 7.5-7.5 7.5z" fill="#fef48b"/></g><g><path d="m262.674 176.151h-4.018c-4.143 0-7.5-3.357-7.5-7.5s3.357-7.5 7.5-7.5h4.018c4.143 0 7.5 3.357 7.5 7.5s-3.358 7.5-7.5 7.5z" fill="#fef48b"/></g><g><path d="m149.601 152.906h-4.305c-4.143 0-7.5-3.357-7.5-7.5s3.357-7.5 7.5-7.5h4.305c4.143 0 7.5 3.357 7.5 7.5s-3.357 7.5-7.5 7.5z" fill="#fef48b"/></g><g fill="#fee903"><path d="m202.255 356.394c-11.109 0-20.114-9.006-20.114-20.114v-25.667c0-11.109 9.006-20.114 20.114-20.114 11.109 0 20.114 9.006 20.114 20.114v25.667c.001 11.108-9.005 20.114-20.114 20.114z"/><circle cx="134.405" cy="261.25" r="19.021"/><circle cx="125.582" cy="409.91" r="27.843"/><circle cx="289.363" cy="309.533" r="13.913"/><circle cx="268.879" cy="417.062" r="18.479"/></g></g></g></svg>