<svg width="127" height="127" viewBox="0 0 127 127" fill="none" xmlns="http://www.w3.org/2000/svg">
<path d="M116.217 76.0448C115.19 73.5051 112.298 72.2775 109.758 73.3049C107.218 74.3318 105.991 77.2233 107.018 79.7635L112.861 94.2162L95.5082 86.5667C94.2521 86.0131 92.8226 86.0044 91.56 86.5431C85.6297 89.0735 79.2768 90.3564 72.6777 90.3564C46.1187 90.3564 28.2774 69.5614 28.2774 50.1391C28.2774 27.9633 48.1953 9.92186 72.6777 9.92186C97.1602 9.92186 117.078 27.9633 117.078 50.1391C117.078 51.8692 116.917 53.9409 116.636 55.8226C116.232 58.5325 118.101 61.0569 120.811 61.4612C123.521 61.8665 126.045 59.9965 126.449 57.2866C126.804 54.9078 127 52.3693 127 50.1391C127 36.6627 121.293 24.0178 110.931 14.5338C100.691 5.1616 87.1056 0 72.6777 0C58.2499 0 44.6649 5.1616 34.4248 14.5335C25.1647 23.0088 19.6263 34.0091 18.552 45.8705C6.90453 53.5837 0.0001654 65.9436 0.0001654 79.257C0.0001654 87.5735 2.62028 95.4644 7.60775 102.255L0.361817 120.179C-0.394972 122.051 0.0582082 124.195 1.50804 125.601C2.45285 126.517 3.69779 127 4.96208 127C5.63751 127 6.31865 126.862 6.96208 126.578L27.8548 117.368C33.1104 119.325 38.6659 120.315 44.4002 120.315C44.5242 120.315 44.646 120.305 44.7678 120.297C53.0617 120.234 61.125 118.052 68.1085 113.97C74.3637 110.312 79.5092 105.289 83.1165 99.3555C86.6385 98.723 90.0809 97.7675 93.4221 96.4903L120.038 108.223C120.681 108.506 121.362 108.645 122.038 108.645C123.302 108.644 124.547 108.161 125.492 107.245C126.942 105.84 127.395 103.696 126.638 101.824L116.217 76.0448ZM44.4007 110.381C44.333 110.381 44.267 110.388 44.1998 110.391C39.1342 110.365 34.2586 109.369 29.7052 107.427C28.4429 106.888 27.0134 106.896 25.7573 107.45L14.1395 112.571L17.8873 103.301C18.5801 101.587 18.2623 99.6298 17.0633 98.2231C12.3913 92.7421 9.92202 86.184 9.92202 79.257C9.92202 71.3292 13.257 63.8176 19.092 58.122C20.9087 68.0252 26.0346 77.4986 33.767 84.9405C43.3889 94.2008 56.1162 99.5656 69.8592 100.211C63.407 106.563 54.1737 110.381 44.4007 110.381Z" fill="#494949"/>
<path d="M72.4299 55.3162C75.1698 55.3162 77.3908 53.0951 77.3908 50.3552C77.3908 47.6154 75.1698 45.3943 72.4299 45.3943C69.6901 45.3943 67.469 47.6154 67.469 50.3552C67.469 53.0951 69.6901 55.3162 72.4299 55.3162Z" fill="#494949"/>
<path d="M92.2742 55.3162C95.014 55.3162 97.2351 53.0951 97.2351 50.3552C97.2351 47.6154 95.014 45.3943 92.2742 45.3943C89.5343 45.3943 87.3132 47.6154 87.3132 50.3552C87.3132 53.0951 89.5343 55.3162 92.2742 55.3162Z" fill="#494949"/>
<path d="M52.5867 55.3162C55.3265 55.3162 57.5476 53.0951 57.5476 50.3552C57.5476 47.6154 55.3265 45.3943 52.5867 45.3943C49.8468 45.3943 47.6257 47.6154 47.6257 50.3552C47.6257 53.0951 49.8468 55.3162 52.5867 55.3162Z" fill="#494949"/>
</svg>
