<svg id="Camada_1" data-name="Camada 1" xmlns="http://www.w3.org/2000/svg" viewBox="0 0 244.29 116.57"><defs><style>.cls-1{fill:#ef7819;}.cls-2{fill:#010101;}.cls-3{fill:#ee781d;}</style></defs><title>logo</title><path class="cls-1" d="M315.11,269.07V236.8H327c4.14,0,7.27.75,9.41,2.24a7.56,7.56,0,0,1,3.2,6.6,7.09,7.09,0,0,1-1.28,4.18,7.47,7.47,0,0,1-3.58,2.65,7,7,0,0,1,5.64,7.11,8.33,8.33,0,0,1-3.14,7.05c-2.09,1.59-5.07,2.41-8.94,2.44Zm7-18.75h5.19c3.54-.06,5.32-1.4,5.32-4a3.6,3.6,0,0,0-1.35-3.15,7.33,7.33,0,0,0-4.25-1h-4.91Zm0,4.69v8.72h6a6.08,6.08,0,0,0,3.88-1.12,3.78,3.78,0,0,0,1.39-3.1q0-4.42-4.85-4.5Z" transform="translate(-281.46 -214.27)"/><path class="cls-1" d="M356.89,269.51a12.8,12.8,0,0,1-9.06-3.24,11.18,11.18,0,0,1-3.5-8.62V257a13.76,13.76,0,0,1,1.48-6.46,10.46,10.46,0,0,1,4.17-4.39,12.21,12.21,0,0,1,6.17-1.54,10.83,10.83,0,0,1,8.17,3.1c2,2.07,3,5,3,8.8v2.62H351.19a5.8,5.8,0,0,0,2,3.77,6.21,6.21,0,0,0,4.18,1.42,7.45,7.45,0,0,0,6.1-2.69l3.33,3.53a10.1,10.1,0,0,1-4.12,3.18A14.17,14.17,0,0,1,356.89,269.51Zm-.77-19.7a4.33,4.33,0,0,0-3.26,1.29,6.43,6.43,0,0,0-1.6,3.69h9.4v-.51a4.64,4.64,0,0,0-1.22-3.31A4.52,4.52,0,0,0,356.12,249.81Z" transform="translate(-281.46 -214.27)"/><path class="cls-1" d="M382.79,269.51a12.8,12.8,0,0,1-9.06-3.24,11.14,11.14,0,0,1-3.5-8.62V257a13.88,13.88,0,0,1,1.47-6.46,10.48,10.48,0,0,1,4.18-4.39,12.17,12.17,0,0,1,6.16-1.54,10.85,10.85,0,0,1,8.18,3.1c2,2.07,3,5,3,8.8v2.62H377.08a5.86,5.86,0,0,0,2,3.77,6.21,6.21,0,0,0,4.18,1.42,7.45,7.45,0,0,0,6.1-2.69l3.32,3.53a10,10,0,0,1-4.11,3.18A14.2,14.2,0,0,1,382.79,269.51Zm-.77-19.7a4.33,4.33,0,0,0-3.26,1.29,6.51,6.51,0,0,0-1.61,3.69h9.41v-.51a4.64,4.64,0,0,0-1.22-3.31A4.53,4.53,0,0,0,382,249.81Z" transform="translate(-281.46 -214.27)"/><path class="cls-1" d="M411.26,251.09a19.06,19.06,0,0,0-2.43-.18q-3.84,0-5,2.46v15.7H397v-24h6.38l.19,2.86a6.32,6.32,0,0,1,5.64-3.3,7.58,7.58,0,0,1,2.11.29Z" transform="translate(-281.46 -214.27)"/><path class="cls-2" d="M422,263.73h14.9v5.34H415V236.8h7Z" transform="translate(-281.46 -214.27)"/><path class="cls-2" d="M440.41,238.88a3.07,3.07,0,0,1,1-2.37,4.58,4.58,0,0,1,5.53,0,3,3,0,0,1,1,2.37,3.08,3.08,0,0,1-1,2.39,4.53,4.53,0,0,1-5.5,0A3.08,3.08,0,0,1,440.41,238.88Zm7.18,30.19h-6.78v-24h6.78Z" transform="translate(-281.46 -214.27)"/><path class="cls-2" d="M459.38,245.08l.21,2.78a9,9,0,0,1,7.28-3.22q4,0,6,2.24t2,6.69v15.5h-6.76V253.73a4,4,0,0,0-.94-3,4.35,4.35,0,0,0-3.11-.92,4.7,4.7,0,0,0-4.28,2.31v16.91H453v-24Z" transform="translate(-281.46 -214.27)"/><path class="cls-2" d="M489.19,259.45l-2.44,2.3v7.32H480V235h6.76v18.86l1.31-1.59,6.48-7.21h8.12l-9.14,10,9.94,14h-7.77Z" transform="translate(-281.46 -214.27)"/><path class="cls-2" d="M332.67,308.69v7.74a5.18,5.18,0,0,1-1.43,3.9,6.76,6.76,0,0,1-8.16,0,5.07,5.07,0,0,1-1.41-3.86v-7.82h3.49v7.54a3.09,3.09,0,0,0,.51,2,2.19,2.19,0,0,0,3,0,3.29,3.29,0,0,0,.48-2v-7.53Z" transform="translate(-281.46 -214.27)"/><path class="cls-2" d="M350.68,321.54h-3.92l-2.54-4.91-1,.61v4.3H339.7V308.69h3.49v5.58a17.07,17.07,0,0,1,1.06-1.64l2.7-3.94h3.8l-4.05,5.76Z" transform="translate(-281.46 -214.27)"/><path class="cls-2" d="M364,321.54h-7.63V308.69H364v2.79h-4.16v2h3.85v2.79h-3.85v2.42H364Z" transform="translate(-281.46 -214.27)"/><path class="cls-2" d="M376.34,311.36a2.2,2.2,0,0,0-1.93,1,4.93,4.93,0,0,0-.69,2.8q0,3.7,2.82,3.71a5.68,5.68,0,0,0,1.65-.24c.53-.16,1.07-.35,1.61-.57V321a9,9,0,0,1-3.64.71A5.77,5.77,0,0,1,371.7,320a6.94,6.94,0,0,1-1.55-4.88,7.74,7.74,0,0,1,.75-3.5,5.36,5.36,0,0,1,2.16-2.33,6.56,6.56,0,0,1,3.32-.81,9.16,9.16,0,0,1,4,.9l-1.06,2.74a12.16,12.16,0,0,0-1.43-.57A5,5,0,0,0,376.34,311.36Z" transform="translate(-281.46 -214.27)"/><path class="cls-2" d="M398.66,315.1a6.94,6.94,0,0,1-1.59,4.93,7.21,7.21,0,0,1-9.29,0,8.34,8.34,0,0,1,0-9.84,7.27,7.27,0,0,1,9.31,0A6.91,6.91,0,0,1,398.66,315.1Zm-8.84,0c0,2.48.87,3.73,2.6,3.73a2.24,2.24,0,0,0,1.95-.91,4.9,4.9,0,0,0,.64-2.82,5,5,0,0,0-.65-2.84,2.18,2.18,0,0,0-1.93-.92Q389.82,311.34,389.82,315.1Z" transform="translate(-281.46 -214.27)"/><path class="cls-2" d="M416.23,314.84a6.64,6.64,0,0,1-1.77,5,6.8,6.8,0,0,1-5,1.74h-4.16V308.69h4.45a6.76,6.76,0,0,1,4.78,1.58A6,6,0,0,1,416.23,314.84Zm-3.6.13a4.12,4.12,0,0,0-.7-2.62,2.59,2.59,0,0,0-2.12-.85h-1v7.19h.78a2.81,2.81,0,0,0,2.32-.91A4.47,4.47,0,0,0,412.63,315Z" transform="translate(-281.46 -214.27)"/><path class="cls-2" d="M430.5,321.54h-7.63V308.69h7.63v2.79h-4.16v2h3.85v2.79h-3.85v2.42h4.16Z" transform="translate(-281.46 -214.27)"/><path class="cls-2" d="M436.45,320.08a1.62,1.62,0,0,1,.48-1.25,2,2,0,0,1,1.4-.43,1.87,1.87,0,0,1,1.33.43,1.65,1.65,0,0,1,.47,1.25,1.61,1.61,0,0,1-.48,1.24,1.9,1.9,0,0,1-1.32.44,2,2,0,0,1-1.37-.44A1.54,1.54,0,0,1,436.45,320.08Z" transform="translate(-281.46 -214.27)"/><path class="cls-3" d="M458.65,315.1a6.94,6.94,0,0,1-1.59,4.93,7.21,7.21,0,0,1-9.29,0,8.3,8.3,0,0,1,0-9.84,7.27,7.27,0,0,1,9.31,0A7,7,0,0,1,458.65,315.1Zm-8.84,0c0,2.48.86,3.73,2.59,3.73a2.25,2.25,0,0,0,2-.91,6.53,6.53,0,0,0,0-5.66,2.18,2.18,0,0,0-1.93-.92Q449.81,311.34,449.81,315.1Z" transform="translate(-281.46 -214.27)"/><path class="cls-3" d="M468.78,316.87v4.67h-3.47V308.69h4.21q5.24,0,5.24,3.8a3.79,3.79,0,0,1-2.18,3.45l3.74,5.6h-3.93l-2.73-4.67Zm0-2.61h.65c1.21,0,1.82-.54,1.82-1.61,0-.89-.59-1.33-1.78-1.33h-.69Z" transform="translate(-281.46 -214.27)"/><path class="cls-3" d="M487,314h5.55v6.92a15.19,15.19,0,0,1-5,.78A6,6,0,0,1,483,320a6.87,6.87,0,0,1-1.62-4.91,6.46,6.46,0,0,1,1.77-4.84,6.8,6.8,0,0,1,5-1.73,10.43,10.43,0,0,1,2.28.23,9.08,9.08,0,0,1,1.88.58l-1.1,2.72a6.73,6.73,0,0,0-3.05-.68,2.9,2.9,0,0,0-2.35,1,4.3,4.3,0,0,0-.83,2.83,4.35,4.35,0,0,0,.75,2.75,2.61,2.61,0,0,0,2.17.94,6.25,6.25,0,0,0,1.42-.15v-2H487Z" transform="translate(-281.46 -214.27)"/><rect class="cls-2" width="6" height="116.57" rx="2"/><rect class="cls-1" x="238.29" width="6" height="116.57" rx="2"/></svg>